<mxfile host="app.diagrams.net" modified="2024-02-16T18:29:42.524Z" agent="Mozilla/5.0 (Windows NT 10.0; Win64; x64) AppleWebKit/537.36 (KHTML, like Gecko) Chrome/121.0.0.0 Safari/537.36" etag="KD-0pXZJVUseXS7indrh" version="23.1.4" type="device">
  <diagram id="R2lEEEUBdFMjLlhIrx00" name="Page-1">
    <mxGraphModel dx="4059" dy="1921" grid="1" gridSize="10" guides="1" tooltips="1" connect="1" arrows="1" fold="1" page="1" pageScale="1" pageWidth="850" pageHeight="1100" math="0" shadow="0" extFonts="Permanent Marker^https://fonts.googleapis.com/css?family=Permanent+Marker">
      <root>
        <mxCell id="0" />
        <mxCell id="1" parent="0" />
        <mxCell id="bOGWUnNEWR53hSMS2ahO-133" value="" style="rounded=0;whiteSpace=wrap;html=1;fillColor=none;strokeWidth=10;" vertex="1" parent="1">
          <mxGeometry x="171.19" y="-140" width="768.81" height="215" as="geometry" />
        </mxCell>
        <mxCell id="MIfq7esP96t-88-8KYBO-1" value="" style="shape=table;startSize=0;container=1;collapsible=0;childLayout=tableLayout;" parent="1" vertex="1">
          <mxGeometry x="-294" y="980" width="492" height="40" as="geometry" />
        </mxCell>
        <mxCell id="MIfq7esP96t-88-8KYBO-2" value="" style="shape=tableRow;horizontal=0;startSize=0;swimlaneHead=0;swimlaneBody=0;strokeColor=inherit;top=0;left=0;bottom=0;right=0;collapsible=0;dropTarget=0;fillColor=none;points=[[0,0.5],[1,0.5]];portConstraint=eastwest;" parent="MIfq7esP96t-88-8KYBO-1" vertex="1">
          <mxGeometry width="492" height="40" as="geometry" />
        </mxCell>
        <mxCell id="MIfq7esP96t-88-8KYBO-3" value="&lt;u&gt;DNI&lt;/u&gt;" style="shape=partialRectangle;html=1;whiteSpace=wrap;connectable=0;strokeColor=inherit;overflow=hidden;fillColor=none;top=0;left=0;bottom=0;right=0;pointerEvents=1;" parent="MIfq7esP96t-88-8KYBO-2" vertex="1">
          <mxGeometry width="164" height="40" as="geometry">
            <mxRectangle width="164" height="40" as="alternateBounds" />
          </mxGeometry>
        </mxCell>
        <mxCell id="MIfq7esP96t-88-8KYBO-4" value="especialidad" style="shape=partialRectangle;html=1;whiteSpace=wrap;connectable=0;strokeColor=inherit;overflow=hidden;fillColor=none;top=0;left=0;bottom=0;right=0;pointerEvents=1;" parent="MIfq7esP96t-88-8KYBO-2" vertex="1">
          <mxGeometry x="164" width="164" height="40" as="geometry">
            <mxRectangle width="164" height="40" as="alternateBounds" />
          </mxGeometry>
        </mxCell>
        <mxCell id="bOGWUnNEWR53hSMS2ahO-92" value="&lt;i&gt;idArea&lt;/i&gt;" style="shape=partialRectangle;html=1;whiteSpace=wrap;connectable=0;strokeColor=inherit;overflow=hidden;fillColor=none;top=0;left=0;bottom=0;right=0;pointerEvents=1;" vertex="1" parent="MIfq7esP96t-88-8KYBO-2">
          <mxGeometry x="328" width="164" height="40" as="geometry">
            <mxRectangle width="164" height="40" as="alternateBounds" />
          </mxGeometry>
        </mxCell>
        <mxCell id="MIfq7esP96t-88-8KYBO-8" value="&lt;b&gt;CONSERVACIÓN&lt;/b&gt;" style="text;html=1;strokeColor=none;fillColor=none;align=center;verticalAlign=middle;whiteSpace=wrap;rounded=0;" parent="1" vertex="1">
          <mxGeometry x="-170.5" y="950" width="245" height="30" as="geometry" />
        </mxCell>
        <mxCell id="MIfq7esP96t-88-8KYBO-9" value="3NF" style="text;strokeColor=none;fillColor=none;html=1;fontSize=24;fontStyle=1;verticalAlign=middle;align=center;" parent="1" vertex="1">
          <mxGeometry x="-410" y="980" width="100" height="40" as="geometry" />
        </mxCell>
        <mxCell id="MIfq7esP96t-88-8KYBO-10" value="" style="shape=table;startSize=0;container=1;collapsible=0;childLayout=tableLayout;" parent="1" vertex="1">
          <mxGeometry x="539.75" y="970" width="328" height="40" as="geometry" />
        </mxCell>
        <mxCell id="MIfq7esP96t-88-8KYBO-11" value="" style="shape=tableRow;horizontal=0;startSize=0;swimlaneHead=0;swimlaneBody=0;strokeColor=inherit;top=0;left=0;bottom=0;right=0;collapsible=0;dropTarget=0;fillColor=none;points=[[0,0.5],[1,0.5]];portConstraint=eastwest;" parent="MIfq7esP96t-88-8KYBO-10" vertex="1">
          <mxGeometry width="328" height="40" as="geometry" />
        </mxCell>
        <mxCell id="MIfq7esP96t-88-8KYBO-12" value="&lt;u&gt;DNI&lt;/u&gt;" style="shape=partialRectangle;html=1;whiteSpace=wrap;connectable=0;strokeColor=inherit;overflow=hidden;fillColor=none;top=0;left=0;bottom=0;right=0;pointerEvents=1;" parent="MIfq7esP96t-88-8KYBO-11" vertex="1">
          <mxGeometry width="164" height="40" as="geometry">
            <mxRectangle width="164" height="40" as="alternateBounds" />
          </mxGeometry>
        </mxCell>
        <mxCell id="bOGWUnNEWR53hSMS2ahO-91" value="&lt;i&gt;idArea&lt;/i&gt;" style="shape=partialRectangle;html=1;whiteSpace=wrap;connectable=0;strokeColor=inherit;overflow=hidden;fillColor=none;top=0;left=0;bottom=0;right=0;pointerEvents=1;" vertex="1" parent="MIfq7esP96t-88-8KYBO-11">
          <mxGeometry x="164" width="164" height="40" as="geometry">
            <mxRectangle width="164" height="40" as="alternateBounds" />
          </mxGeometry>
        </mxCell>
        <mxCell id="MIfq7esP96t-88-8KYBO-14" value="&lt;b&gt;VIGILANCIA&lt;/b&gt;" style="text;html=1;strokeColor=none;fillColor=none;align=center;verticalAlign=middle;whiteSpace=wrap;rounded=0;" parent="1" vertex="1">
          <mxGeometry x="581.25" y="930" width="245" height="30" as="geometry" />
        </mxCell>
        <mxCell id="MIfq7esP96t-88-8KYBO-15" value="3NF" style="text;strokeColor=none;fillColor=none;html=1;fontSize=24;fontStyle=1;verticalAlign=middle;align=center;" parent="1" vertex="1">
          <mxGeometry x="351.75" y="970" width="100" height="40" as="geometry" />
        </mxCell>
        <mxCell id="MIfq7esP96t-88-8KYBO-16" value="" style="shape=table;startSize=0;container=1;collapsible=0;childLayout=tableLayout;" parent="1" vertex="1">
          <mxGeometry x="1092" y="1460" width="820" height="40" as="geometry" />
        </mxCell>
        <mxCell id="MIfq7esP96t-88-8KYBO-17" value="" style="shape=tableRow;horizontal=0;startSize=0;swimlaneHead=0;swimlaneBody=0;strokeColor=inherit;top=0;left=0;bottom=0;right=0;collapsible=0;dropTarget=0;fillColor=none;points=[[0,0.5],[1,0.5]];portConstraint=eastwest;" parent="MIfq7esP96t-88-8KYBO-16" vertex="1">
          <mxGeometry width="820" height="40" as="geometry" />
        </mxCell>
        <mxCell id="MIfq7esP96t-88-8KYBO-18" value="&lt;u&gt;codProyecto&lt;/u&gt;" style="shape=partialRectangle;html=1;whiteSpace=wrap;connectable=0;strokeColor=inherit;overflow=hidden;fillColor=none;top=0;left=0;bottom=0;right=0;pointerEvents=1;" parent="MIfq7esP96t-88-8KYBO-17" vertex="1">
          <mxGeometry width="164" height="40" as="geometry">
            <mxRectangle width="164" height="40" as="alternateBounds" />
          </mxGeometry>
        </mxCell>
        <mxCell id="MIfq7esP96t-88-8KYBO-20" value="periodoRealizacion" style="shape=partialRectangle;html=1;whiteSpace=wrap;connectable=0;strokeColor=inherit;overflow=hidden;fillColor=none;top=0;left=0;bottom=0;right=0;pointerEvents=1;" parent="MIfq7esP96t-88-8KYBO-17" vertex="1">
          <mxGeometry x="164" width="164" height="40" as="geometry">
            <mxRectangle width="164" height="40" as="alternateBounds" />
          </mxGeometry>
        </mxCell>
        <mxCell id="MIfq7esP96t-88-8KYBO-22" value="presupuesto" style="shape=partialRectangle;html=1;whiteSpace=wrap;connectable=0;strokeColor=inherit;overflow=hidden;fillColor=none;top=0;left=0;bottom=0;right=0;pointerEvents=1;" parent="MIfq7esP96t-88-8KYBO-17" vertex="1">
          <mxGeometry x="328" width="164" height="40" as="geometry">
            <mxRectangle width="164" height="40" as="alternateBounds" />
          </mxGeometry>
        </mxCell>
        <mxCell id="MIfq7esP96t-88-8KYBO-23" value="&lt;i style=&quot;&quot;&gt;dniInvestigador&lt;/i&gt;" style="shape=partialRectangle;html=1;whiteSpace=wrap;connectable=0;strokeColor=inherit;overflow=hidden;fillColor=none;top=0;left=0;bottom=0;right=0;pointerEvents=1;" parent="MIfq7esP96t-88-8KYBO-17" vertex="1">
          <mxGeometry x="492" width="164" height="40" as="geometry">
            <mxRectangle width="164" height="40" as="alternateBounds" />
          </mxGeometry>
        </mxCell>
        <mxCell id="MIfq7esP96t-88-8KYBO-24" value="&lt;i style=&quot;&quot;&gt;denCientífica&lt;/i&gt;" style="shape=partialRectangle;html=1;whiteSpace=wrap;connectable=0;strokeColor=inherit;overflow=hidden;fillColor=none;top=0;left=0;bottom=0;right=0;pointerEvents=1;" parent="MIfq7esP96t-88-8KYBO-17" vertex="1">
          <mxGeometry x="656" width="164" height="40" as="geometry">
            <mxRectangle width="164" height="40" as="alternateBounds" />
          </mxGeometry>
        </mxCell>
        <mxCell id="MIfq7esP96t-88-8KYBO-19" value="&lt;b&gt;PROYECTO&lt;/b&gt;" style="text;html=1;strokeColor=none;fillColor=none;align=center;verticalAlign=middle;whiteSpace=wrap;rounded=0;" parent="1" vertex="1">
          <mxGeometry x="1379.5" y="1420" width="245" height="30" as="geometry" />
        </mxCell>
        <mxCell id="MIfq7esP96t-88-8KYBO-21" value="3NF" style="text;strokeColor=none;fillColor=none;html=1;fontSize=24;fontStyle=1;verticalAlign=middle;align=center;" parent="1" vertex="1">
          <mxGeometry x="940" y="1450" width="100" height="40" as="geometry" />
        </mxCell>
        <mxCell id="MIfq7esP96t-88-8KYBO-29" value="" style="shape=table;startSize=0;container=1;collapsible=0;childLayout=tableLayout;" parent="1" vertex="1">
          <mxGeometry x="538" y="1190" width="328" height="40" as="geometry" />
        </mxCell>
        <mxCell id="MIfq7esP96t-88-8KYBO-30" value="" style="shape=tableRow;horizontal=0;startSize=0;swimlaneHead=0;swimlaneBody=0;strokeColor=inherit;top=0;left=0;bottom=0;right=0;collapsible=0;dropTarget=0;fillColor=none;points=[[0,0.5],[1,0.5]];portConstraint=eastwest;" parent="MIfq7esP96t-88-8KYBO-29" vertex="1">
          <mxGeometry width="328" height="40" as="geometry" />
        </mxCell>
        <mxCell id="MIfq7esP96t-88-8KYBO-31" value="&lt;u&gt;&lt;i&gt;DNIVigilancia&lt;/i&gt;&lt;/u&gt;" style="shape=partialRectangle;html=1;whiteSpace=wrap;connectable=0;strokeColor=inherit;overflow=hidden;fillColor=none;top=0;left=0;bottom=0;right=0;pointerEvents=1;" parent="MIfq7esP96t-88-8KYBO-30" vertex="1">
          <mxGeometry width="164" height="40" as="geometry">
            <mxRectangle width="164" height="40" as="alternateBounds" />
          </mxGeometry>
        </mxCell>
        <mxCell id="MIfq7esP96t-88-8KYBO-32" value="&lt;u&gt;&lt;i&gt;Matricula&lt;/i&gt;&lt;/u&gt;" style="shape=partialRectangle;html=1;whiteSpace=wrap;connectable=0;strokeColor=inherit;overflow=hidden;fillColor=none;top=0;left=0;bottom=0;right=0;pointerEvents=1;" parent="MIfq7esP96t-88-8KYBO-30" vertex="1">
          <mxGeometry x="164" width="164" height="40" as="geometry">
            <mxRectangle width="164" height="40" as="alternateBounds" />
          </mxGeometry>
        </mxCell>
        <mxCell id="MIfq7esP96t-88-8KYBO-33" value="&lt;b&gt;UTILIZA&lt;/b&gt;" style="text;html=1;strokeColor=none;fillColor=none;align=center;verticalAlign=middle;whiteSpace=wrap;rounded=0;" parent="1" vertex="1">
          <mxGeometry x="579.5" y="1150" width="245" height="30" as="geometry" />
        </mxCell>
        <mxCell id="MIfq7esP96t-88-8KYBO-34" value="3NF" style="text;strokeColor=none;fillColor=none;html=1;fontSize=24;fontStyle=1;verticalAlign=middle;align=center;" parent="1" vertex="1">
          <mxGeometry x="351.75" y="1180" width="100" height="40" as="geometry" />
        </mxCell>
        <mxCell id="MIfq7esP96t-88-8KYBO-35" value="" style="shape=table;startSize=0;container=1;collapsible=0;childLayout=tableLayout;" parent="1" vertex="1">
          <mxGeometry x="526.25" y="1460" width="328" height="40" as="geometry" />
        </mxCell>
        <mxCell id="MIfq7esP96t-88-8KYBO-36" value="" style="shape=tableRow;horizontal=0;startSize=0;swimlaneHead=0;swimlaneBody=0;strokeColor=inherit;top=0;left=0;bottom=0;right=0;collapsible=0;dropTarget=0;fillColor=none;points=[[0,0.5],[1,0.5]];portConstraint=eastwest;" parent="MIfq7esP96t-88-8KYBO-35" vertex="1">
          <mxGeometry width="328" height="40" as="geometry" />
        </mxCell>
        <mxCell id="MIfq7esP96t-88-8KYBO-37" value="&lt;u&gt;Matricula&lt;/u&gt;" style="shape=partialRectangle;html=1;whiteSpace=wrap;connectable=0;strokeColor=inherit;overflow=hidden;fillColor=none;top=0;left=0;bottom=0;right=0;pointerEvents=1;" parent="MIfq7esP96t-88-8KYBO-36" vertex="1">
          <mxGeometry width="164" height="40" as="geometry">
            <mxRectangle width="164" height="40" as="alternateBounds" />
          </mxGeometry>
        </mxCell>
        <mxCell id="MIfq7esP96t-88-8KYBO-38" value="tipo_vehiculo" style="shape=partialRectangle;html=1;whiteSpace=wrap;connectable=0;strokeColor=inherit;overflow=hidden;fillColor=none;top=0;left=0;bottom=0;right=0;pointerEvents=1;" parent="MIfq7esP96t-88-8KYBO-36" vertex="1">
          <mxGeometry x="164" width="164" height="40" as="geometry">
            <mxRectangle width="164" height="40" as="alternateBounds" />
          </mxGeometry>
        </mxCell>
        <mxCell id="MIfq7esP96t-88-8KYBO-39" value="&lt;b&gt;VEHICULO&lt;/b&gt;" style="text;html=1;strokeColor=none;fillColor=none;align=center;verticalAlign=middle;whiteSpace=wrap;rounded=0;" parent="1" vertex="1">
          <mxGeometry x="567.75" y="1420" width="245" height="30" as="geometry" />
        </mxCell>
        <mxCell id="MIfq7esP96t-88-8KYBO-40" value="3NF" style="text;strokeColor=none;fillColor=none;html=1;fontSize=24;fontStyle=1;verticalAlign=middle;align=center;" parent="1" vertex="1">
          <mxGeometry x="350" y="1470" width="100" height="40" as="geometry" />
        </mxCell>
        <mxCell id="MIfq7esP96t-88-8KYBO-41" value="" style="shape=table;startSize=0;container=1;collapsible=0;childLayout=tableLayout;" parent="1" vertex="1">
          <mxGeometry x="1268" y="190" width="328" height="40" as="geometry" />
        </mxCell>
        <mxCell id="MIfq7esP96t-88-8KYBO-42" value="" style="shape=tableRow;horizontal=0;startSize=0;swimlaneHead=0;swimlaneBody=0;strokeColor=inherit;top=0;left=0;bottom=0;right=0;collapsible=0;dropTarget=0;fillColor=none;points=[[0,0.5],[1,0.5]];portConstraint=eastwest;" parent="MIfq7esP96t-88-8KYBO-41" vertex="1">
          <mxGeometry width="328" height="40" as="geometry" />
        </mxCell>
        <mxCell id="MIfq7esP96t-88-8KYBO-43" value="&lt;u&gt;&lt;i&gt;idParque&lt;/i&gt;&lt;/u&gt;" style="shape=partialRectangle;html=1;whiteSpace=wrap;connectable=0;strokeColor=inherit;overflow=hidden;fillColor=none;top=0;left=0;bottom=0;right=0;pointerEvents=1;" parent="MIfq7esP96t-88-8KYBO-42" vertex="1">
          <mxGeometry width="164" height="40" as="geometry">
            <mxRectangle width="164" height="40" as="alternateBounds" />
          </mxGeometry>
        </mxCell>
        <mxCell id="MIfq7esP96t-88-8KYBO-44" value="&lt;u&gt;&lt;i&gt;idArea&lt;/i&gt;&lt;/u&gt;" style="shape=partialRectangle;html=1;whiteSpace=wrap;connectable=0;strokeColor=inherit;overflow=hidden;fillColor=none;top=0;left=0;bottom=0;right=0;pointerEvents=1;" parent="MIfq7esP96t-88-8KYBO-42" vertex="1">
          <mxGeometry x="164" width="164" height="40" as="geometry">
            <mxRectangle width="164" height="40" as="alternateBounds" />
          </mxGeometry>
        </mxCell>
        <mxCell id="MIfq7esP96t-88-8KYBO-45" value="&lt;b&gt;COMPONE&lt;/b&gt;" style="text;html=1;strokeColor=none;fillColor=none;align=center;verticalAlign=middle;whiteSpace=wrap;rounded=0;" parent="1" vertex="1">
          <mxGeometry x="1309.5" y="150" width="245" height="30" as="geometry" />
        </mxCell>
        <mxCell id="MIfq7esP96t-88-8KYBO-46" value="3NF" style="text;strokeColor=none;fillColor=none;html=1;fontSize=24;fontStyle=1;verticalAlign=middle;align=center;" parent="1" vertex="1">
          <mxGeometry x="1070" y="190" width="100" height="40" as="geometry" />
        </mxCell>
        <mxCell id="MIfq7esP96t-88-8KYBO-47" value="" style="shape=table;startSize=0;container=1;collapsible=0;childLayout=tableLayout;" parent="1" vertex="1">
          <mxGeometry x="2086" y="180" width="492" height="40" as="geometry" />
        </mxCell>
        <mxCell id="MIfq7esP96t-88-8KYBO-48" value="" style="shape=tableRow;horizontal=0;startSize=0;swimlaneHead=0;swimlaneBody=0;strokeColor=inherit;top=0;left=0;bottom=0;right=0;collapsible=0;dropTarget=0;fillColor=none;points=[[0,0.5],[1,0.5]];portConstraint=eastwest;" parent="MIfq7esP96t-88-8KYBO-47" vertex="1">
          <mxGeometry width="492" height="40" as="geometry" />
        </mxCell>
        <mxCell id="MIfq7esP96t-88-8KYBO-49" value="&lt;u&gt;idArea&lt;/u&gt;" style="shape=partialRectangle;html=1;whiteSpace=wrap;connectable=0;strokeColor=inherit;overflow=hidden;fillColor=none;top=0;left=0;bottom=0;right=0;pointerEvents=1;" parent="MIfq7esP96t-88-8KYBO-48" vertex="1">
          <mxGeometry width="164" height="40" as="geometry">
            <mxRectangle width="164" height="40" as="alternateBounds" />
          </mxGeometry>
        </mxCell>
        <mxCell id="MIfq7esP96t-88-8KYBO-50" value="nombre" style="shape=partialRectangle;html=1;whiteSpace=wrap;connectable=0;strokeColor=inherit;overflow=hidden;fillColor=none;top=0;left=0;bottom=0;right=0;pointerEvents=1;" parent="MIfq7esP96t-88-8KYBO-48" vertex="1">
          <mxGeometry x="164" width="164" height="40" as="geometry">
            <mxRectangle width="164" height="40" as="alternateBounds" />
          </mxGeometry>
        </mxCell>
        <mxCell id="MIfq7esP96t-88-8KYBO-52" value="extension" style="shape=partialRectangle;html=1;whiteSpace=wrap;connectable=0;strokeColor=inherit;overflow=hidden;fillColor=none;top=0;left=0;bottom=0;right=0;pointerEvents=1;" parent="MIfq7esP96t-88-8KYBO-48" vertex="1">
          <mxGeometry x="328" width="164" height="40" as="geometry">
            <mxRectangle width="164" height="40" as="alternateBounds" />
          </mxGeometry>
        </mxCell>
        <mxCell id="MIfq7esP96t-88-8KYBO-51" value="&lt;b&gt;ÁREA&lt;/b&gt;" style="text;html=1;strokeColor=none;fillColor=none;align=center;verticalAlign=middle;whiteSpace=wrap;rounded=0;" parent="1" vertex="1">
          <mxGeometry x="2209.5" y="140" width="245" height="30" as="geometry" />
        </mxCell>
        <mxCell id="MIfq7esP96t-88-8KYBO-53" value="3NF" style="text;strokeColor=none;fillColor=none;html=1;fontSize=24;fontStyle=1;verticalAlign=middle;align=center;" parent="1" vertex="1">
          <mxGeometry x="1940" y="180" width="100" height="40" as="geometry" />
        </mxCell>
        <mxCell id="MIfq7esP96t-88-8KYBO-54" value="" style="shape=table;startSize=0;container=1;collapsible=0;childLayout=tableLayout;" parent="1" vertex="1">
          <mxGeometry x="2180" y="400" width="328" height="40" as="geometry" />
        </mxCell>
        <mxCell id="MIfq7esP96t-88-8KYBO-55" value="" style="shape=tableRow;horizontal=0;startSize=0;swimlaneHead=0;swimlaneBody=0;strokeColor=inherit;top=0;left=0;bottom=0;right=0;collapsible=0;dropTarget=0;fillColor=none;points=[[0,0.5],[1,0.5]];portConstraint=eastwest;" parent="MIfq7esP96t-88-8KYBO-54" vertex="1">
          <mxGeometry width="328" height="40" as="geometry" />
        </mxCell>
        <mxCell id="MIfq7esP96t-88-8KYBO-56" value="&lt;u&gt;&lt;i&gt;idArea&lt;/i&gt;&lt;/u&gt;" style="shape=partialRectangle;html=1;whiteSpace=wrap;connectable=0;strokeColor=inherit;overflow=hidden;fillColor=none;top=0;left=0;bottom=0;right=0;pointerEvents=1;" parent="MIfq7esP96t-88-8KYBO-55" vertex="1">
          <mxGeometry width="164" height="40" as="geometry">
            <mxRectangle width="164" height="40" as="alternateBounds" />
          </mxGeometry>
        </mxCell>
        <mxCell id="MIfq7esP96t-88-8KYBO-57" value="&lt;u&gt;&lt;i&gt;denCientifica&lt;/i&gt;&lt;/u&gt;" style="shape=partialRectangle;html=1;whiteSpace=wrap;connectable=0;strokeColor=inherit;overflow=hidden;fillColor=none;top=0;left=0;bottom=0;right=0;pointerEvents=1;" parent="MIfq7esP96t-88-8KYBO-55" vertex="1">
          <mxGeometry x="164" width="164" height="40" as="geometry">
            <mxRectangle width="164" height="40" as="alternateBounds" />
          </mxGeometry>
        </mxCell>
        <mxCell id="MIfq7esP96t-88-8KYBO-58" value="&lt;b&gt;RESIDE&lt;/b&gt;" style="text;html=1;strokeColor=none;fillColor=none;align=center;verticalAlign=middle;whiteSpace=wrap;rounded=0;" parent="1" vertex="1">
          <mxGeometry x="2221.5" y="360" width="245" height="30" as="geometry" />
        </mxCell>
        <mxCell id="MIfq7esP96t-88-8KYBO-59" value="3NF" style="text;strokeColor=none;fillColor=none;html=1;fontSize=24;fontStyle=1;verticalAlign=middle;align=center;" parent="1" vertex="1">
          <mxGeometry x="1940" y="390" width="100" height="40" as="geometry" />
        </mxCell>
        <mxCell id="bOGWUnNEWR53hSMS2ahO-1" value="" style="shape=table;startSize=0;container=1;collapsible=0;childLayout=tableLayout;" vertex="1" parent="1">
          <mxGeometry x="152" y="210" width="656" height="40" as="geometry" />
        </mxCell>
        <mxCell id="bOGWUnNEWR53hSMS2ahO-2" value="" style="shape=tableRow;horizontal=0;startSize=0;swimlaneHead=0;swimlaneBody=0;strokeColor=inherit;top=0;left=0;bottom=0;right=0;collapsible=0;dropTarget=0;fillColor=none;points=[[0,0.5],[1,0.5]];portConstraint=eastwest;" vertex="1" parent="bOGWUnNEWR53hSMS2ahO-1">
          <mxGeometry width="656" height="40" as="geometry" />
        </mxCell>
        <mxCell id="bOGWUnNEWR53hSMS2ahO-3" value="&lt;u&gt;idParque&lt;/u&gt;" style="shape=partialRectangle;html=1;whiteSpace=wrap;connectable=0;strokeColor=inherit;overflow=hidden;fillColor=none;top=0;left=0;bottom=0;right=0;pointerEvents=1;" vertex="1" parent="bOGWUnNEWR53hSMS2ahO-2">
          <mxGeometry width="164" height="40" as="geometry">
            <mxRectangle width="164" height="40" as="alternateBounds" />
          </mxGeometry>
        </mxCell>
        <mxCell id="bOGWUnNEWR53hSMS2ahO-4" value="nombre" style="shape=partialRectangle;html=1;whiteSpace=wrap;connectable=0;strokeColor=inherit;overflow=hidden;fillColor=none;top=0;left=0;bottom=0;right=0;pointerEvents=1;" vertex="1" parent="bOGWUnNEWR53hSMS2ahO-2">
          <mxGeometry x="164" width="164" height="40" as="geometry">
            <mxRectangle width="164" height="40" as="alternateBounds" />
          </mxGeometry>
        </mxCell>
        <mxCell id="bOGWUnNEWR53hSMS2ahO-5" value="fechaDeclaracion" style="shape=partialRectangle;html=1;whiteSpace=wrap;connectable=0;strokeColor=inherit;overflow=hidden;fillColor=none;top=0;left=0;bottom=0;right=0;pointerEvents=1;" vertex="1" parent="bOGWUnNEWR53hSMS2ahO-2">
          <mxGeometry x="328" width="164" height="40" as="geometry">
            <mxRectangle width="164" height="40" as="alternateBounds" />
          </mxGeometry>
        </mxCell>
        <mxCell id="bOGWUnNEWR53hSMS2ahO-131" value="superficieTotal" style="shape=partialRectangle;html=1;whiteSpace=wrap;connectable=0;strokeColor=inherit;overflow=hidden;fillColor=none;top=0;left=0;bottom=0;right=0;pointerEvents=1;" vertex="1" parent="bOGWUnNEWR53hSMS2ahO-2">
          <mxGeometry x="492" width="164" height="40" as="geometry">
            <mxRectangle width="164" height="40" as="alternateBounds" />
          </mxGeometry>
        </mxCell>
        <mxCell id="bOGWUnNEWR53hSMS2ahO-8" value="&lt;b&gt;PARQUE NATURAL&lt;/b&gt;" style="text;html=1;strokeColor=none;fillColor=none;align=center;verticalAlign=middle;whiteSpace=wrap;rounded=0;" vertex="1" parent="1">
          <mxGeometry x="339.5" y="180" width="245" height="30" as="geometry" />
        </mxCell>
        <mxCell id="bOGWUnNEWR53hSMS2ahO-9" value="3NF" style="text;strokeColor=none;fillColor=none;html=1;fontSize=24;fontStyle=1;verticalAlign=middle;align=center;" vertex="1" parent="1">
          <mxGeometry y="210" width="100" height="40" as="geometry" />
        </mxCell>
        <mxCell id="bOGWUnNEWR53hSMS2ahO-10" value="" style="shape=table;startSize=0;container=1;collapsible=0;childLayout=tableLayout;" vertex="1" parent="1">
          <mxGeometry x="302" y="340" width="328" height="40" as="geometry" />
        </mxCell>
        <mxCell id="bOGWUnNEWR53hSMS2ahO-11" value="" style="shape=tableRow;horizontal=0;startSize=0;swimlaneHead=0;swimlaneBody=0;strokeColor=inherit;top=0;left=0;bottom=0;right=0;collapsible=0;dropTarget=0;fillColor=none;points=[[0,0.5],[1,0.5]];portConstraint=eastwest;" vertex="1" parent="bOGWUnNEWR53hSMS2ahO-10">
          <mxGeometry width="328" height="40" as="geometry" />
        </mxCell>
        <mxCell id="bOGWUnNEWR53hSMS2ahO-12" value="&lt;u&gt;&lt;i&gt;idParque&lt;/i&gt;&lt;/u&gt;" style="shape=partialRectangle;html=1;whiteSpace=wrap;connectable=0;strokeColor=inherit;overflow=hidden;fillColor=none;top=0;left=0;bottom=0;right=0;pointerEvents=1;" vertex="1" parent="bOGWUnNEWR53hSMS2ahO-11">
          <mxGeometry width="164" height="40" as="geometry">
            <mxRectangle width="164" height="40" as="alternateBounds" />
          </mxGeometry>
        </mxCell>
        <mxCell id="bOGWUnNEWR53hSMS2ahO-13" value="&lt;u&gt;&lt;i&gt;nombreCA&lt;/i&gt;&lt;/u&gt;" style="shape=partialRectangle;html=1;whiteSpace=wrap;connectable=0;strokeColor=inherit;overflow=hidden;fillColor=none;top=0;left=0;bottom=0;right=0;pointerEvents=1;" vertex="1" parent="bOGWUnNEWR53hSMS2ahO-11">
          <mxGeometry x="164" width="164" height="40" as="geometry">
            <mxRectangle width="164" height="40" as="alternateBounds" />
          </mxGeometry>
        </mxCell>
        <mxCell id="bOGWUnNEWR53hSMS2ahO-15" value="&lt;b&gt;ESTÁ&lt;/b&gt;" style="text;html=1;strokeColor=none;fillColor=none;align=center;verticalAlign=middle;whiteSpace=wrap;rounded=0;" vertex="1" parent="1">
          <mxGeometry x="343.5" y="310" width="245" height="30" as="geometry" />
        </mxCell>
        <mxCell id="bOGWUnNEWR53hSMS2ahO-16" value="" style="shape=table;startSize=0;container=1;collapsible=0;childLayout=tableLayout;" vertex="1" parent="1">
          <mxGeometry x="312" y="475" width="328" height="40" as="geometry" />
        </mxCell>
        <mxCell id="bOGWUnNEWR53hSMS2ahO-17" value="" style="shape=tableRow;horizontal=0;startSize=0;swimlaneHead=0;swimlaneBody=0;strokeColor=inherit;top=0;left=0;bottom=0;right=0;collapsible=0;dropTarget=0;fillColor=none;points=[[0,0.5],[1,0.5]];portConstraint=eastwest;" vertex="1" parent="bOGWUnNEWR53hSMS2ahO-16">
          <mxGeometry width="328" height="40" as="geometry" />
        </mxCell>
        <mxCell id="bOGWUnNEWR53hSMS2ahO-18" value="&lt;u&gt;nombreCA&lt;/u&gt;" style="shape=partialRectangle;html=1;whiteSpace=wrap;connectable=0;strokeColor=inherit;overflow=hidden;fillColor=none;top=0;left=0;bottom=0;right=0;pointerEvents=1;" vertex="1" parent="bOGWUnNEWR53hSMS2ahO-17">
          <mxGeometry width="164" height="40" as="geometry">
            <mxRectangle width="164" height="40" as="alternateBounds" />
          </mxGeometry>
        </mxCell>
        <mxCell id="bOGWUnNEWR53hSMS2ahO-19" value="nºParques" style="shape=partialRectangle;html=1;whiteSpace=wrap;connectable=0;strokeColor=inherit;overflow=hidden;fillColor=none;top=0;left=0;bottom=0;right=0;pointerEvents=1;" vertex="1" parent="bOGWUnNEWR53hSMS2ahO-17">
          <mxGeometry x="164" width="164" height="40" as="geometry">
            <mxRectangle width="164" height="40" as="alternateBounds" />
          </mxGeometry>
        </mxCell>
        <mxCell id="bOGWUnNEWR53hSMS2ahO-20" value="&lt;b&gt;COMUNIDAD AUTONOMA&lt;/b&gt;" style="text;html=1;strokeColor=none;fillColor=none;align=center;verticalAlign=middle;whiteSpace=wrap;rounded=0;" vertex="1" parent="1">
          <mxGeometry x="353.5" y="440" width="245" height="30" as="geometry" />
        </mxCell>
        <mxCell id="bOGWUnNEWR53hSMS2ahO-22" value="" style="shape=table;startSize=0;container=1;collapsible=0;childLayout=tableLayout;" vertex="1" parent="1">
          <mxGeometry x="320" y="620" width="328" height="40" as="geometry" />
        </mxCell>
        <mxCell id="bOGWUnNEWR53hSMS2ahO-23" value="" style="shape=tableRow;horizontal=0;startSize=0;swimlaneHead=0;swimlaneBody=0;strokeColor=inherit;top=0;left=0;bottom=0;right=0;collapsible=0;dropTarget=0;fillColor=none;points=[[0,0.5],[1,0.5]];portConstraint=eastwest;" vertex="1" parent="bOGWUnNEWR53hSMS2ahO-22">
          <mxGeometry width="328" height="40" as="geometry" />
        </mxCell>
        <mxCell id="bOGWUnNEWR53hSMS2ahO-24" value="&lt;u&gt;idOrganismo&lt;/u&gt;" style="shape=partialRectangle;html=1;whiteSpace=wrap;connectable=0;strokeColor=inherit;overflow=hidden;fillColor=none;top=0;left=0;bottom=0;right=0;pointerEvents=1;" vertex="1" parent="bOGWUnNEWR53hSMS2ahO-23">
          <mxGeometry width="164" height="40" as="geometry">
            <mxRectangle width="164" height="40" as="alternateBounds" />
          </mxGeometry>
        </mxCell>
        <mxCell id="bOGWUnNEWR53hSMS2ahO-25" value="&lt;i style=&quot;&quot;&gt;nombreCA&lt;/i&gt;" style="shape=partialRectangle;html=1;whiteSpace=wrap;connectable=0;strokeColor=inherit;overflow=hidden;fillColor=none;top=0;left=0;bottom=0;right=0;pointerEvents=1;" vertex="1" parent="bOGWUnNEWR53hSMS2ahO-23">
          <mxGeometry x="164" width="164" height="40" as="geometry">
            <mxRectangle width="164" height="40" as="alternateBounds" />
          </mxGeometry>
        </mxCell>
        <mxCell id="bOGWUnNEWR53hSMS2ahO-27" value="&lt;b&gt;ORGANISMO&lt;/b&gt;" style="text;html=1;strokeColor=none;fillColor=none;align=center;verticalAlign=middle;whiteSpace=wrap;rounded=0;" vertex="1" parent="1">
          <mxGeometry x="355.5" y="580" width="245" height="30" as="geometry" />
        </mxCell>
        <mxCell id="bOGWUnNEWR53hSMS2ahO-33" value="" style="shape=table;startSize=0;container=1;collapsible=0;childLayout=tableLayout;" vertex="1" parent="1">
          <mxGeometry x="-90" y="780" width="1148" height="40" as="geometry" />
        </mxCell>
        <mxCell id="bOGWUnNEWR53hSMS2ahO-34" value="" style="shape=tableRow;horizontal=0;startSize=0;swimlaneHead=0;swimlaneBody=0;strokeColor=inherit;top=0;left=0;bottom=0;right=0;collapsible=0;dropTarget=0;fillColor=none;points=[[0,0.5],[1,0.5]];portConstraint=eastwest;" vertex="1" parent="bOGWUnNEWR53hSMS2ahO-33">
          <mxGeometry width="1148" height="40" as="geometry" />
        </mxCell>
        <mxCell id="bOGWUnNEWR53hSMS2ahO-35" value="&lt;u&gt;DNI&lt;/u&gt;" style="shape=partialRectangle;html=1;whiteSpace=wrap;connectable=0;strokeColor=inherit;overflow=hidden;fillColor=none;top=0;left=0;bottom=0;right=0;pointerEvents=1;" vertex="1" parent="bOGWUnNEWR53hSMS2ahO-34">
          <mxGeometry width="164" height="40" as="geometry">
            <mxRectangle width="164" height="40" as="alternateBounds" />
          </mxGeometry>
        </mxCell>
        <mxCell id="bOGWUnNEWR53hSMS2ahO-36" value="nombre" style="shape=partialRectangle;html=1;whiteSpace=wrap;connectable=0;strokeColor=inherit;overflow=hidden;fillColor=none;top=0;left=0;bottom=0;right=0;pointerEvents=1;" vertex="1" parent="bOGWUnNEWR53hSMS2ahO-34">
          <mxGeometry x="164" width="164" height="40" as="geometry">
            <mxRectangle width="164" height="40" as="alternateBounds" />
          </mxGeometry>
        </mxCell>
        <mxCell id="bOGWUnNEWR53hSMS2ahO-37" value="telefonoDomicilio" style="shape=partialRectangle;html=1;whiteSpace=wrap;connectable=0;strokeColor=inherit;overflow=hidden;fillColor=none;top=0;left=0;bottom=0;right=0;pointerEvents=1;" vertex="1" parent="bOGWUnNEWR53hSMS2ahO-34">
          <mxGeometry x="328" width="164" height="40" as="geometry">
            <mxRectangle width="164" height="40" as="alternateBounds" />
          </mxGeometry>
        </mxCell>
        <mxCell id="bOGWUnNEWR53hSMS2ahO-39" value="telefonoMovil" style="shape=partialRectangle;html=1;whiteSpace=wrap;connectable=0;strokeColor=inherit;overflow=hidden;fillColor=none;top=0;left=0;bottom=0;right=0;pointerEvents=1;" vertex="1" parent="bOGWUnNEWR53hSMS2ahO-34">
          <mxGeometry x="492" width="164" height="40" as="geometry">
            <mxRectangle width="164" height="40" as="alternateBounds" />
          </mxGeometry>
        </mxCell>
        <mxCell id="bOGWUnNEWR53hSMS2ahO-40" value="direccion&lt;span style=&quot;white-space: pre;&quot;&gt;&#x9;&lt;/span&gt;" style="shape=partialRectangle;html=1;whiteSpace=wrap;connectable=0;strokeColor=inherit;overflow=hidden;fillColor=none;top=0;left=0;bottom=0;right=0;pointerEvents=1;" vertex="1" parent="bOGWUnNEWR53hSMS2ahO-34">
          <mxGeometry x="656" width="164" height="40" as="geometry">
            <mxRectangle width="164" height="40" as="alternateBounds" />
          </mxGeometry>
        </mxCell>
        <mxCell id="bOGWUnNEWR53hSMS2ahO-41" value="sueldo" style="shape=partialRectangle;html=1;whiteSpace=wrap;connectable=0;strokeColor=inherit;overflow=hidden;fillColor=none;top=0;left=0;bottom=0;right=0;pointerEvents=1;" vertex="1" parent="bOGWUnNEWR53hSMS2ahO-34">
          <mxGeometry x="820" width="164" height="40" as="geometry">
            <mxRectangle width="164" height="40" as="alternateBounds" />
          </mxGeometry>
        </mxCell>
        <mxCell id="bOGWUnNEWR53hSMS2ahO-42" value="&lt;b&gt;nºSS&lt;/b&gt;" style="shape=partialRectangle;html=1;whiteSpace=wrap;connectable=0;strokeColor=inherit;overflow=hidden;fillColor=none;top=0;left=0;bottom=0;right=0;pointerEvents=1;" vertex="1" parent="bOGWUnNEWR53hSMS2ahO-34">
          <mxGeometry x="984" width="164" height="40" as="geometry">
            <mxRectangle width="164" height="40" as="alternateBounds" />
          </mxGeometry>
        </mxCell>
        <mxCell id="bOGWUnNEWR53hSMS2ahO-38" value="&lt;b&gt;PERSONAL&lt;/b&gt;" style="text;html=1;strokeColor=none;fillColor=none;align=center;verticalAlign=middle;whiteSpace=wrap;rounded=0;" vertex="1" parent="1">
          <mxGeometry x="357.5" y="740" width="245" height="30" as="geometry" />
        </mxCell>
        <mxCell id="bOGWUnNEWR53hSMS2ahO-43" value="3NF" style="text;strokeColor=none;fillColor=none;html=1;fontSize=24;fontStyle=1;verticalAlign=middle;align=center;" vertex="1" parent="1">
          <mxGeometry x="-9" y="340" width="100" height="40" as="geometry" />
        </mxCell>
        <mxCell id="bOGWUnNEWR53hSMS2ahO-44" value="3NF" style="text;strokeColor=none;fillColor=none;html=1;fontSize=24;fontStyle=1;verticalAlign=middle;align=center;" vertex="1" parent="1">
          <mxGeometry y="470" width="100" height="40" as="geometry" />
        </mxCell>
        <mxCell id="bOGWUnNEWR53hSMS2ahO-45" value="3NF" style="text;strokeColor=none;fillColor=none;html=1;fontSize=24;fontStyle=1;verticalAlign=middle;align=center;" vertex="1" parent="1">
          <mxGeometry x="10" y="630" width="100" height="40" as="geometry" />
        </mxCell>
        <mxCell id="bOGWUnNEWR53hSMS2ahO-46" value="3NF" style="text;strokeColor=none;fillColor=none;html=1;fontSize=24;fontStyle=1;verticalAlign=middle;align=center;" vertex="1" parent="1">
          <mxGeometry x="-280" y="780" width="100" height="40" as="geometry" />
        </mxCell>
        <mxCell id="bOGWUnNEWR53hSMS2ahO-48" value="" style="shape=table;startSize=0;container=1;collapsible=0;childLayout=tableLayout;" vertex="1" parent="1">
          <mxGeometry x="2190" y="580" width="328" height="40" as="geometry" />
        </mxCell>
        <mxCell id="bOGWUnNEWR53hSMS2ahO-49" value="" style="shape=tableRow;horizontal=0;startSize=0;swimlaneHead=0;swimlaneBody=0;strokeColor=inherit;top=0;left=0;bottom=0;right=0;collapsible=0;dropTarget=0;fillColor=none;points=[[0,0.5],[1,0.5]];portConstraint=eastwest;" vertex="1" parent="bOGWUnNEWR53hSMS2ahO-48">
          <mxGeometry width="328" height="40" as="geometry" />
        </mxCell>
        <mxCell id="bOGWUnNEWR53hSMS2ahO-50" value="&lt;u&gt;denCientifica&lt;/u&gt;" style="shape=partialRectangle;html=1;whiteSpace=wrap;connectable=0;strokeColor=inherit;overflow=hidden;fillColor=none;top=0;left=0;bottom=0;right=0;pointerEvents=1;" vertex="1" parent="bOGWUnNEWR53hSMS2ahO-49">
          <mxGeometry width="164" height="40" as="geometry">
            <mxRectangle width="164" height="40" as="alternateBounds" />
          </mxGeometry>
        </mxCell>
        <mxCell id="bOGWUnNEWR53hSMS2ahO-51" value="denVulgar" style="shape=partialRectangle;html=1;whiteSpace=wrap;connectable=0;strokeColor=inherit;overflow=hidden;fillColor=none;top=0;left=0;bottom=0;right=0;pointerEvents=1;" vertex="1" parent="bOGWUnNEWR53hSMS2ahO-49">
          <mxGeometry x="164" width="164" height="40" as="geometry">
            <mxRectangle width="164" height="40" as="alternateBounds" />
          </mxGeometry>
        </mxCell>
        <mxCell id="bOGWUnNEWR53hSMS2ahO-52" value="&lt;b&gt;ESPECIE&lt;/b&gt;" style="text;html=1;strokeColor=none;fillColor=none;align=center;verticalAlign=middle;whiteSpace=wrap;rounded=0;" vertex="1" parent="1">
          <mxGeometry x="2231.5" y="540" width="245" height="30" as="geometry" />
        </mxCell>
        <mxCell id="bOGWUnNEWR53hSMS2ahO-53" value="3NF" style="text;strokeColor=none;fillColor=none;html=1;fontSize=24;fontStyle=1;verticalAlign=middle;align=center;" vertex="1" parent="1">
          <mxGeometry x="1950" y="570" width="100" height="40" as="geometry" />
        </mxCell>
        <mxCell id="bOGWUnNEWR53hSMS2ahO-54" value="" style="shape=table;startSize=0;container=1;collapsible=0;childLayout=tableLayout;" vertex="1" parent="1">
          <mxGeometry x="2108" y="710" width="492" height="40" as="geometry" />
        </mxCell>
        <mxCell id="bOGWUnNEWR53hSMS2ahO-55" value="" style="shape=tableRow;horizontal=0;startSize=0;swimlaneHead=0;swimlaneBody=0;strokeColor=inherit;top=0;left=0;bottom=0;right=0;collapsible=0;dropTarget=0;fillColor=none;points=[[0,0.5],[1,0.5]];portConstraint=eastwest;" vertex="1" parent="bOGWUnNEWR53hSMS2ahO-54">
          <mxGeometry width="492" height="40" as="geometry" />
        </mxCell>
        <mxCell id="bOGWUnNEWR53hSMS2ahO-56" value="&lt;u&gt;denCientifica&lt;/u&gt;" style="shape=partialRectangle;html=1;whiteSpace=wrap;connectable=0;strokeColor=inherit;overflow=hidden;fillColor=none;top=0;left=0;bottom=0;right=0;pointerEvents=1;" vertex="1" parent="bOGWUnNEWR53hSMS2ahO-55">
          <mxGeometry width="164" height="40" as="geometry">
            <mxRectangle width="164" height="40" as="alternateBounds" />
          </mxGeometry>
        </mxCell>
        <mxCell id="bOGWUnNEWR53hSMS2ahO-57" value="floracion" style="shape=partialRectangle;html=1;whiteSpace=wrap;connectable=0;strokeColor=inherit;overflow=hidden;fillColor=none;top=0;left=0;bottom=0;right=0;pointerEvents=1;" vertex="1" parent="bOGWUnNEWR53hSMS2ahO-55">
          <mxGeometry x="164" width="164" height="40" as="geometry">
            <mxRectangle width="164" height="40" as="alternateBounds" />
          </mxGeometry>
        </mxCell>
        <mxCell id="bOGWUnNEWR53hSMS2ahO-60" value="periodoProd" style="shape=partialRectangle;html=1;whiteSpace=wrap;connectable=0;strokeColor=inherit;overflow=hidden;fillColor=none;top=0;left=0;bottom=0;right=0;pointerEvents=1;" vertex="1" parent="bOGWUnNEWR53hSMS2ahO-55">
          <mxGeometry x="328" width="164" height="40" as="geometry">
            <mxRectangle width="164" height="40" as="alternateBounds" />
          </mxGeometry>
        </mxCell>
        <mxCell id="bOGWUnNEWR53hSMS2ahO-58" value="&lt;b&gt;VEGETAL&lt;/b&gt;" style="text;html=1;strokeColor=none;fillColor=none;align=center;verticalAlign=middle;whiteSpace=wrap;rounded=0;" vertex="1" parent="1">
          <mxGeometry x="2231.5" y="670" width="245" height="30" as="geometry" />
        </mxCell>
        <mxCell id="bOGWUnNEWR53hSMS2ahO-59" value="3NF" style="text;strokeColor=none;fillColor=none;html=1;fontSize=24;fontStyle=1;verticalAlign=middle;align=center;" vertex="1" parent="1">
          <mxGeometry x="1950" y="710" width="100" height="40" as="geometry" />
        </mxCell>
        <mxCell id="bOGWUnNEWR53hSMS2ahO-61" value="" style="shape=table;startSize=0;container=1;collapsible=0;childLayout=tableLayout;" vertex="1" parent="1">
          <mxGeometry x="2108" y="890" width="492" height="40" as="geometry" />
        </mxCell>
        <mxCell id="bOGWUnNEWR53hSMS2ahO-62" value="" style="shape=tableRow;horizontal=0;startSize=0;swimlaneHead=0;swimlaneBody=0;strokeColor=inherit;top=0;left=0;bottom=0;right=0;collapsible=0;dropTarget=0;fillColor=none;points=[[0,0.5],[1,0.5]];portConstraint=eastwest;" vertex="1" parent="bOGWUnNEWR53hSMS2ahO-61">
          <mxGeometry width="492" height="40" as="geometry" />
        </mxCell>
        <mxCell id="bOGWUnNEWR53hSMS2ahO-63" value="&lt;u&gt;denCientifica&lt;/u&gt;" style="shape=partialRectangle;html=1;whiteSpace=wrap;connectable=0;strokeColor=inherit;overflow=hidden;fillColor=none;top=0;left=0;bottom=0;right=0;pointerEvents=1;" vertex="1" parent="bOGWUnNEWR53hSMS2ahO-62">
          <mxGeometry width="164" height="40" as="geometry">
            <mxRectangle width="164" height="40" as="alternateBounds" />
          </mxGeometry>
        </mxCell>
        <mxCell id="bOGWUnNEWR53hSMS2ahO-64" value="periodoCelo" style="shape=partialRectangle;html=1;whiteSpace=wrap;connectable=0;strokeColor=inherit;overflow=hidden;fillColor=none;top=0;left=0;bottom=0;right=0;pointerEvents=1;" vertex="1" parent="bOGWUnNEWR53hSMS2ahO-62">
          <mxGeometry x="164" width="164" height="40" as="geometry">
            <mxRectangle width="164" height="40" as="alternateBounds" />
          </mxGeometry>
        </mxCell>
        <mxCell id="bOGWUnNEWR53hSMS2ahO-65" value="tipoAlimentacion" style="shape=partialRectangle;html=1;whiteSpace=wrap;connectable=0;strokeColor=inherit;overflow=hidden;fillColor=none;top=0;left=0;bottom=0;right=0;pointerEvents=1;" vertex="1" parent="bOGWUnNEWR53hSMS2ahO-62">
          <mxGeometry x="328" width="164" height="40" as="geometry">
            <mxRectangle width="164" height="40" as="alternateBounds" />
          </mxGeometry>
        </mxCell>
        <mxCell id="bOGWUnNEWR53hSMS2ahO-66" value="&lt;b&gt;ANIMAL&lt;/b&gt;" style="text;html=1;strokeColor=none;fillColor=none;align=center;verticalAlign=middle;whiteSpace=wrap;rounded=0;" vertex="1" parent="1">
          <mxGeometry x="2231.5" y="850" width="245" height="30" as="geometry" />
        </mxCell>
        <mxCell id="bOGWUnNEWR53hSMS2ahO-67" value="3NF" style="text;strokeColor=none;fillColor=none;html=1;fontSize=24;fontStyle=1;verticalAlign=middle;align=center;" vertex="1" parent="1">
          <mxGeometry x="1950" y="890" width="100" height="40" as="geometry" />
        </mxCell>
        <mxCell id="bOGWUnNEWR53hSMS2ahO-68" value="" style="shape=table;startSize=0;container=1;collapsible=0;childLayout=tableLayout;" vertex="1" parent="1">
          <mxGeometry x="2190" y="1050" width="328" height="40" as="geometry" />
        </mxCell>
        <mxCell id="bOGWUnNEWR53hSMS2ahO-69" value="" style="shape=tableRow;horizontal=0;startSize=0;swimlaneHead=0;swimlaneBody=0;strokeColor=inherit;top=0;left=0;bottom=0;right=0;collapsible=0;dropTarget=0;fillColor=none;points=[[0,0.5],[1,0.5]];portConstraint=eastwest;" vertex="1" parent="bOGWUnNEWR53hSMS2ahO-68">
          <mxGeometry width="328" height="40" as="geometry" />
        </mxCell>
        <mxCell id="bOGWUnNEWR53hSMS2ahO-70" value="&lt;u&gt;&lt;i&gt;denCientificaDepredador&lt;/i&gt;&lt;/u&gt;" style="shape=partialRectangle;html=1;whiteSpace=wrap;connectable=0;strokeColor=inherit;overflow=hidden;fillColor=none;top=0;left=0;bottom=0;right=0;pointerEvents=1;" vertex="1" parent="bOGWUnNEWR53hSMS2ahO-69">
          <mxGeometry width="164" height="40" as="geometry">
            <mxRectangle width="164" height="40" as="alternateBounds" />
          </mxGeometry>
        </mxCell>
        <mxCell id="bOGWUnNEWR53hSMS2ahO-71" value="&lt;u&gt;&lt;i&gt;denCientificaAlimento&lt;/i&gt;&lt;/u&gt;" style="shape=partialRectangle;html=1;whiteSpace=wrap;connectable=0;strokeColor=inherit;overflow=hidden;fillColor=none;top=0;left=0;bottom=0;right=0;pointerEvents=1;" vertex="1" parent="bOGWUnNEWR53hSMS2ahO-69">
          <mxGeometry x="164" width="164" height="40" as="geometry">
            <mxRectangle width="164" height="40" as="alternateBounds" />
          </mxGeometry>
        </mxCell>
        <mxCell id="bOGWUnNEWR53hSMS2ahO-72" value="&lt;b&gt;SE ALIMENTA DE&lt;/b&gt;" style="text;html=1;strokeColor=none;fillColor=none;align=center;verticalAlign=middle;whiteSpace=wrap;rounded=0;" vertex="1" parent="1">
          <mxGeometry x="2231.5" y="1010" width="245" height="30" as="geometry" />
        </mxCell>
        <mxCell id="bOGWUnNEWR53hSMS2ahO-73" value="3NF" style="text;strokeColor=none;fillColor=none;html=1;fontSize=24;fontStyle=1;verticalAlign=middle;align=center;" vertex="1" parent="1">
          <mxGeometry x="1986" y="1050" width="100" height="40" as="geometry" />
        </mxCell>
        <mxCell id="bOGWUnNEWR53hSMS2ahO-74" value="" style="shape=table;startSize=0;container=1;collapsible=0;childLayout=tableLayout;" vertex="1" parent="1">
          <mxGeometry x="1365.5" y="960" width="164" height="40" as="geometry" />
        </mxCell>
        <mxCell id="bOGWUnNEWR53hSMS2ahO-75" value="" style="shape=tableRow;horizontal=0;startSize=0;swimlaneHead=0;swimlaneBody=0;strokeColor=inherit;top=0;left=0;bottom=0;right=0;collapsible=0;dropTarget=0;fillColor=none;points=[[0,0.5],[1,0.5]];portConstraint=eastwest;" vertex="1" parent="bOGWUnNEWR53hSMS2ahO-74">
          <mxGeometry width="164" height="40" as="geometry" />
        </mxCell>
        <mxCell id="bOGWUnNEWR53hSMS2ahO-76" value="&lt;u&gt;DNI&lt;/u&gt;" style="shape=partialRectangle;html=1;whiteSpace=wrap;connectable=0;strokeColor=inherit;overflow=hidden;fillColor=none;top=0;left=0;bottom=0;right=0;pointerEvents=1;" vertex="1" parent="bOGWUnNEWR53hSMS2ahO-75">
          <mxGeometry width="164" height="40" as="geometry">
            <mxRectangle width="164" height="40" as="alternateBounds" />
          </mxGeometry>
        </mxCell>
        <mxCell id="bOGWUnNEWR53hSMS2ahO-77" value="&lt;b&gt;INVESTIGADOR&lt;/b&gt;" style="text;html=1;strokeColor=none;fillColor=none;align=center;verticalAlign=middle;whiteSpace=wrap;rounded=0;" vertex="1" parent="1">
          <mxGeometry x="1325" y="920" width="245" height="30" as="geometry" />
        </mxCell>
        <mxCell id="bOGWUnNEWR53hSMS2ahO-78" value="3NF" style="text;strokeColor=none;fillColor=none;html=1;fontSize=24;fontStyle=1;verticalAlign=middle;align=center;" vertex="1" parent="1">
          <mxGeometry x="1220" y="960" width="100" height="40" as="geometry" />
        </mxCell>
        <mxCell id="bOGWUnNEWR53hSMS2ahO-79" value="" style="shape=table;startSize=0;container=1;collapsible=0;childLayout=tableLayout;" vertex="1" parent="1">
          <mxGeometry x="1316.25" y="1180" width="328" height="40" as="geometry" />
        </mxCell>
        <mxCell id="bOGWUnNEWR53hSMS2ahO-80" value="" style="shape=tableRow;horizontal=0;startSize=0;swimlaneHead=0;swimlaneBody=0;strokeColor=inherit;top=0;left=0;bottom=0;right=0;collapsible=0;dropTarget=0;fillColor=none;points=[[0,0.5],[1,0.5]];portConstraint=eastwest;" vertex="1" parent="bOGWUnNEWR53hSMS2ahO-79">
          <mxGeometry width="328" height="40" as="geometry" />
        </mxCell>
        <mxCell id="bOGWUnNEWR53hSMS2ahO-81" value="&lt;u&gt;&lt;i&gt;dniInvestigador&lt;/i&gt;&lt;/u&gt;" style="shape=partialRectangle;html=1;whiteSpace=wrap;connectable=0;strokeColor=inherit;overflow=hidden;fillColor=none;top=0;left=0;bottom=0;right=0;pointerEvents=1;" vertex="1" parent="bOGWUnNEWR53hSMS2ahO-80">
          <mxGeometry width="164" height="40" as="geometry">
            <mxRectangle width="164" height="40" as="alternateBounds" />
          </mxGeometry>
        </mxCell>
        <mxCell id="bOGWUnNEWR53hSMS2ahO-82" value="&lt;u&gt;titulacion&lt;/u&gt;" style="shape=partialRectangle;html=1;whiteSpace=wrap;connectable=0;strokeColor=inherit;overflow=hidden;fillColor=none;top=0;left=0;bottom=0;right=0;pointerEvents=1;" vertex="1" parent="bOGWUnNEWR53hSMS2ahO-80">
          <mxGeometry x="164" width="164" height="40" as="geometry">
            <mxRectangle width="164" height="40" as="alternateBounds" />
          </mxGeometry>
        </mxCell>
        <mxCell id="bOGWUnNEWR53hSMS2ahO-83" value="&lt;b&gt;TITULACIÓN&lt;/b&gt;" style="text;html=1;strokeColor=none;fillColor=none;align=center;verticalAlign=middle;whiteSpace=wrap;rounded=0;" vertex="1" parent="1">
          <mxGeometry x="1357.75" y="1140" width="245" height="30" as="geometry" />
        </mxCell>
        <mxCell id="bOGWUnNEWR53hSMS2ahO-84" value="3NF" style="text;strokeColor=none;fillColor=none;html=1;fontSize=24;fontStyle=1;verticalAlign=middle;align=center;" vertex="1" parent="1">
          <mxGeometry x="1190" y="1180" width="100" height="40" as="geometry" />
        </mxCell>
        <mxCell id="bOGWUnNEWR53hSMS2ahO-85" value="" style="shape=table;startSize=0;container=1;collapsible=0;childLayout=tableLayout;" vertex="1" parent="1">
          <mxGeometry x="-1012" y="980" width="328" height="40" as="geometry" />
        </mxCell>
        <mxCell id="bOGWUnNEWR53hSMS2ahO-86" value="" style="shape=tableRow;horizontal=0;startSize=0;swimlaneHead=0;swimlaneBody=0;strokeColor=inherit;top=0;left=0;bottom=0;right=0;collapsible=0;dropTarget=0;fillColor=none;points=[[0,0.5],[1,0.5]];portConstraint=eastwest;" vertex="1" parent="bOGWUnNEWR53hSMS2ahO-85">
          <mxGeometry width="328" height="40" as="geometry" />
        </mxCell>
        <mxCell id="bOGWUnNEWR53hSMS2ahO-87" value="&lt;u&gt;DNI&lt;/u&gt;" style="shape=partialRectangle;html=1;whiteSpace=wrap;connectable=0;strokeColor=inherit;overflow=hidden;fillColor=none;top=0;left=0;bottom=0;right=0;pointerEvents=1;" vertex="1" parent="bOGWUnNEWR53hSMS2ahO-86">
          <mxGeometry width="164" height="40" as="geometry">
            <mxRectangle width="164" height="40" as="alternateBounds" />
          </mxGeometry>
        </mxCell>
        <mxCell id="bOGWUnNEWR53hSMS2ahO-88" value="nºEntrada" style="shape=partialRectangle;html=1;whiteSpace=wrap;connectable=0;strokeColor=inherit;overflow=hidden;fillColor=none;top=0;left=0;bottom=0;right=0;pointerEvents=1;" vertex="1" parent="bOGWUnNEWR53hSMS2ahO-86">
          <mxGeometry x="164" width="164" height="40" as="geometry">
            <mxRectangle width="164" height="40" as="alternateBounds" />
          </mxGeometry>
        </mxCell>
        <mxCell id="bOGWUnNEWR53hSMS2ahO-89" value="&lt;b&gt;GESTION&lt;/b&gt;" style="text;html=1;strokeColor=none;fillColor=none;align=center;verticalAlign=middle;whiteSpace=wrap;rounded=0;" vertex="1" parent="1">
          <mxGeometry x="-960.5" y="950" width="245" height="30" as="geometry" />
        </mxCell>
        <mxCell id="bOGWUnNEWR53hSMS2ahO-90" value="3NF" style="text;strokeColor=none;fillColor=none;html=1;fontSize=24;fontStyle=1;verticalAlign=middle;align=center;" vertex="1" parent="1">
          <mxGeometry x="-1200" y="980" width="100" height="40" as="geometry" />
        </mxCell>
        <mxCell id="bOGWUnNEWR53hSMS2ahO-93" value="" style="shape=table;startSize=0;container=1;collapsible=0;childLayout=tableLayout;" vertex="1" parent="1">
          <mxGeometry x="-701" y="320" width="328" height="40" as="geometry" />
        </mxCell>
        <mxCell id="bOGWUnNEWR53hSMS2ahO-94" value="" style="shape=tableRow;horizontal=0;startSize=0;swimlaneHead=0;swimlaneBody=0;strokeColor=inherit;top=0;left=0;bottom=0;right=0;collapsible=0;dropTarget=0;fillColor=none;points=[[0,0.5],[1,0.5]];portConstraint=eastwest;" vertex="1" parent="bOGWUnNEWR53hSMS2ahO-93">
          <mxGeometry width="328" height="40" as="geometry" />
        </mxCell>
        <mxCell id="bOGWUnNEWR53hSMS2ahO-95" value="&lt;u&gt;&lt;i&gt;dniVisitante&lt;/i&gt;&lt;/u&gt;" style="shape=partialRectangle;html=1;whiteSpace=wrap;connectable=0;strokeColor=inherit;overflow=hidden;fillColor=none;top=0;left=0;bottom=0;right=0;pointerEvents=1;" vertex="1" parent="bOGWUnNEWR53hSMS2ahO-94">
          <mxGeometry width="164" height="40" as="geometry">
            <mxRectangle width="164" height="40" as="alternateBounds" />
          </mxGeometry>
        </mxCell>
        <mxCell id="bOGWUnNEWR53hSMS2ahO-96" value="&lt;u&gt;&lt;i&gt;idParque&lt;/i&gt;&lt;/u&gt;" style="shape=partialRectangle;html=1;whiteSpace=wrap;connectable=0;strokeColor=inherit;overflow=hidden;fillColor=none;top=0;left=0;bottom=0;right=0;pointerEvents=1;" vertex="1" parent="bOGWUnNEWR53hSMS2ahO-94">
          <mxGeometry x="164" width="164" height="40" as="geometry">
            <mxRectangle width="164" height="40" as="alternateBounds" />
          </mxGeometry>
        </mxCell>
        <mxCell id="bOGWUnNEWR53hSMS2ahO-97" value="&lt;b&gt;VISITA&lt;/b&gt;" style="text;html=1;strokeColor=none;fillColor=none;align=center;verticalAlign=middle;whiteSpace=wrap;rounded=0;" vertex="1" parent="1">
          <mxGeometry x="-659.5" y="290" width="245" height="30" as="geometry" />
        </mxCell>
        <mxCell id="bOGWUnNEWR53hSMS2ahO-98" value="3NF" style="text;strokeColor=none;fillColor=none;html=1;fontSize=24;fontStyle=1;verticalAlign=middle;align=center;" vertex="1" parent="1">
          <mxGeometry x="-870" y="320" width="100" height="40" as="geometry" />
        </mxCell>
        <mxCell id="bOGWUnNEWR53hSMS2ahO-99" value="" style="shape=table;startSize=0;container=1;collapsible=0;childLayout=tableLayout;" vertex="1" parent="1">
          <mxGeometry x="-865" y="460" width="656" height="40" as="geometry" />
        </mxCell>
        <mxCell id="bOGWUnNEWR53hSMS2ahO-100" value="" style="shape=tableRow;horizontal=0;startSize=0;swimlaneHead=0;swimlaneBody=0;strokeColor=inherit;top=0;left=0;bottom=0;right=0;collapsible=0;dropTarget=0;fillColor=none;points=[[0,0.5],[1,0.5]];portConstraint=eastwest;" vertex="1" parent="bOGWUnNEWR53hSMS2ahO-99">
          <mxGeometry width="656" height="40" as="geometry" />
        </mxCell>
        <mxCell id="bOGWUnNEWR53hSMS2ahO-101" value="&lt;u&gt;dniVisitante&lt;/u&gt;" style="shape=partialRectangle;html=1;whiteSpace=wrap;connectable=0;strokeColor=inherit;overflow=hidden;fillColor=none;top=0;left=0;bottom=0;right=0;pointerEvents=1;" vertex="1" parent="bOGWUnNEWR53hSMS2ahO-100">
          <mxGeometry width="164" height="40" as="geometry">
            <mxRectangle width="164" height="40" as="alternateBounds" />
          </mxGeometry>
        </mxCell>
        <mxCell id="bOGWUnNEWR53hSMS2ahO-102" value="nombre" style="shape=partialRectangle;html=1;whiteSpace=wrap;connectable=0;strokeColor=inherit;overflow=hidden;fillColor=none;top=0;left=0;bottom=0;right=0;pointerEvents=1;" vertex="1" parent="bOGWUnNEWR53hSMS2ahO-100">
          <mxGeometry x="164" width="164" height="40" as="geometry">
            <mxRectangle width="164" height="40" as="alternateBounds" />
          </mxGeometry>
        </mxCell>
        <mxCell id="bOGWUnNEWR53hSMS2ahO-105" value="domicilio" style="shape=partialRectangle;html=1;whiteSpace=wrap;connectable=0;strokeColor=inherit;overflow=hidden;fillColor=none;top=0;left=0;bottom=0;right=0;pointerEvents=1;" vertex="1" parent="bOGWUnNEWR53hSMS2ahO-100">
          <mxGeometry x="328" width="164" height="40" as="geometry">
            <mxRectangle width="164" height="40" as="alternateBounds" />
          </mxGeometry>
        </mxCell>
        <mxCell id="bOGWUnNEWR53hSMS2ahO-106" value="profesion" style="shape=partialRectangle;html=1;whiteSpace=wrap;connectable=0;strokeColor=inherit;overflow=hidden;fillColor=none;top=0;left=0;bottom=0;right=0;pointerEvents=1;" vertex="1" parent="bOGWUnNEWR53hSMS2ahO-100">
          <mxGeometry x="492" width="164" height="40" as="geometry">
            <mxRectangle width="164" height="40" as="alternateBounds" />
          </mxGeometry>
        </mxCell>
        <mxCell id="bOGWUnNEWR53hSMS2ahO-103" value="&lt;b&gt;VISITANTE&lt;/b&gt;" style="text;html=1;strokeColor=none;fillColor=none;align=center;verticalAlign=middle;whiteSpace=wrap;rounded=0;" vertex="1" parent="1">
          <mxGeometry x="-659.5" y="430" width="245" height="30" as="geometry" />
        </mxCell>
        <mxCell id="bOGWUnNEWR53hSMS2ahO-104" value="3NF" style="text;strokeColor=none;fillColor=none;html=1;fontSize=24;fontStyle=1;verticalAlign=middle;align=center;" vertex="1" parent="1">
          <mxGeometry x="-1060.5" y="460" width="100" height="40" as="geometry" />
        </mxCell>
        <mxCell id="bOGWUnNEWR53hSMS2ahO-107" value="" style="shape=table;startSize=0;container=1;collapsible=0;childLayout=tableLayout;" vertex="1" parent="1">
          <mxGeometry x="-1971" y="250" width="656" height="40" as="geometry" />
        </mxCell>
        <mxCell id="bOGWUnNEWR53hSMS2ahO-108" value="" style="shape=tableRow;horizontal=0;startSize=0;swimlaneHead=0;swimlaneBody=0;strokeColor=inherit;top=0;left=0;bottom=0;right=0;collapsible=0;dropTarget=0;fillColor=none;points=[[0,0.5],[1,0.5]];portConstraint=eastwest;" vertex="1" parent="bOGWUnNEWR53hSMS2ahO-107">
          <mxGeometry width="656" height="40" as="geometry" />
        </mxCell>
        <mxCell id="bOGWUnNEWR53hSMS2ahO-109" value="&lt;u&gt;idAlojamiento&lt;/u&gt;" style="shape=partialRectangle;html=1;whiteSpace=wrap;connectable=0;strokeColor=inherit;overflow=hidden;fillColor=none;top=0;left=0;bottom=0;right=0;pointerEvents=1;" vertex="1" parent="bOGWUnNEWR53hSMS2ahO-108">
          <mxGeometry width="164" height="40" as="geometry">
            <mxRectangle width="164" height="40" as="alternateBounds" />
          </mxGeometry>
        </mxCell>
        <mxCell id="bOGWUnNEWR53hSMS2ahO-110" value="categoria" style="shape=partialRectangle;html=1;whiteSpace=wrap;connectable=0;strokeColor=inherit;overflow=hidden;fillColor=none;top=0;left=0;bottom=0;right=0;pointerEvents=1;" vertex="1" parent="bOGWUnNEWR53hSMS2ahO-108">
          <mxGeometry x="164" width="164" height="40" as="geometry">
            <mxRectangle width="164" height="40" as="alternateBounds" />
          </mxGeometry>
        </mxCell>
        <mxCell id="bOGWUnNEWR53hSMS2ahO-111" value="capacidad" style="shape=partialRectangle;html=1;whiteSpace=wrap;connectable=0;strokeColor=inherit;overflow=hidden;fillColor=none;top=0;left=0;bottom=0;right=0;pointerEvents=1;" vertex="1" parent="bOGWUnNEWR53hSMS2ahO-108">
          <mxGeometry x="328" width="164" height="40" as="geometry">
            <mxRectangle width="164" height="40" as="alternateBounds" />
          </mxGeometry>
        </mxCell>
        <mxCell id="bOGWUnNEWR53hSMS2ahO-112" value="&lt;i&gt;idParque&lt;/i&gt;" style="shape=partialRectangle;html=1;whiteSpace=wrap;connectable=0;strokeColor=inherit;overflow=hidden;fillColor=none;top=0;left=0;bottom=0;right=0;pointerEvents=1;" vertex="1" parent="bOGWUnNEWR53hSMS2ahO-108">
          <mxGeometry x="492" width="164" height="40" as="geometry">
            <mxRectangle width="164" height="40" as="alternateBounds" />
          </mxGeometry>
        </mxCell>
        <mxCell id="bOGWUnNEWR53hSMS2ahO-113" value="&lt;b&gt;ALOJAMIENTO&lt;/b&gt;" style="text;html=1;strokeColor=none;fillColor=none;align=center;verticalAlign=middle;whiteSpace=wrap;rounded=0;" vertex="1" parent="1">
          <mxGeometry x="-1759" y="220" width="245" height="30" as="geometry" />
        </mxCell>
        <mxCell id="bOGWUnNEWR53hSMS2ahO-114" value="3NF" style="text;strokeColor=none;fillColor=none;html=1;fontSize=24;fontStyle=1;verticalAlign=middle;align=center;" vertex="1" parent="1">
          <mxGeometry x="-2140" y="250" width="100" height="40" as="geometry" />
        </mxCell>
        <mxCell id="bOGWUnNEWR53hSMS2ahO-115" value="" style="shape=table;startSize=0;container=1;collapsible=0;childLayout=tableLayout;" vertex="1" parent="1">
          <mxGeometry x="-1490" y="470" width="328" height="40" as="geometry" />
        </mxCell>
        <mxCell id="bOGWUnNEWR53hSMS2ahO-116" value="" style="shape=tableRow;horizontal=0;startSize=0;swimlaneHead=0;swimlaneBody=0;strokeColor=inherit;top=0;left=0;bottom=0;right=0;collapsible=0;dropTarget=0;fillColor=none;points=[[0,0.5],[1,0.5]];portConstraint=eastwest;" vertex="1" parent="bOGWUnNEWR53hSMS2ahO-115">
          <mxGeometry width="328" height="40" as="geometry" />
        </mxCell>
        <mxCell id="bOGWUnNEWR53hSMS2ahO-117" value="&lt;u&gt;&lt;i&gt;dniVisitante&lt;/i&gt;&lt;/u&gt;" style="shape=partialRectangle;html=1;whiteSpace=wrap;connectable=0;strokeColor=inherit;overflow=hidden;fillColor=none;top=0;left=0;bottom=0;right=0;pointerEvents=1;" vertex="1" parent="bOGWUnNEWR53hSMS2ahO-116">
          <mxGeometry width="164" height="40" as="geometry">
            <mxRectangle width="164" height="40" as="alternateBounds" />
          </mxGeometry>
        </mxCell>
        <mxCell id="bOGWUnNEWR53hSMS2ahO-118" value="&lt;u&gt;&lt;i&gt;idAlojamiento&lt;/i&gt;&lt;/u&gt;" style="shape=partialRectangle;html=1;whiteSpace=wrap;connectable=0;strokeColor=inherit;overflow=hidden;fillColor=none;top=0;left=0;bottom=0;right=0;pointerEvents=1;" vertex="1" parent="bOGWUnNEWR53hSMS2ahO-116">
          <mxGeometry x="164" width="164" height="40" as="geometry">
            <mxRectangle width="164" height="40" as="alternateBounds" />
          </mxGeometry>
        </mxCell>
        <mxCell id="bOGWUnNEWR53hSMS2ahO-119" value="&lt;b&gt;SE ALOJA&lt;/b&gt;" style="text;html=1;strokeColor=none;fillColor=none;align=center;verticalAlign=middle;whiteSpace=wrap;rounded=0;" vertex="1" parent="1">
          <mxGeometry x="-1440" y="440" width="245" height="30" as="geometry" />
        </mxCell>
        <mxCell id="bOGWUnNEWR53hSMS2ahO-120" value="3NF" style="text;strokeColor=none;fillColor=none;html=1;fontSize=24;fontStyle=1;verticalAlign=middle;align=center;" vertex="1" parent="1">
          <mxGeometry x="-1610" y="470" width="100" height="40" as="geometry" />
        </mxCell>
        <mxCell id="bOGWUnNEWR53hSMS2ahO-121" value="" style="shape=table;startSize=0;container=1;collapsible=0;childLayout=tableLayout;" vertex="1" parent="1">
          <mxGeometry x="-2350" y="655" width="328" height="40" as="geometry" />
        </mxCell>
        <mxCell id="bOGWUnNEWR53hSMS2ahO-122" value="" style="shape=tableRow;horizontal=0;startSize=0;swimlaneHead=0;swimlaneBody=0;strokeColor=inherit;top=0;left=0;bottom=0;right=0;collapsible=0;dropTarget=0;fillColor=none;points=[[0,0.5],[1,0.5]];portConstraint=eastwest;" vertex="1" parent="bOGWUnNEWR53hSMS2ahO-121">
          <mxGeometry width="328" height="40" as="geometry" />
        </mxCell>
        <mxCell id="bOGWUnNEWR53hSMS2ahO-123" value="&lt;u&gt;idExcursion&lt;/u&gt;" style="shape=partialRectangle;html=1;whiteSpace=wrap;connectable=0;strokeColor=inherit;overflow=hidden;fillColor=none;top=0;left=0;bottom=0;right=0;pointerEvents=1;" vertex="1" parent="bOGWUnNEWR53hSMS2ahO-122">
          <mxGeometry width="164" height="40" as="geometry">
            <mxRectangle width="164" height="40" as="alternateBounds" />
          </mxGeometry>
        </mxCell>
        <mxCell id="bOGWUnNEWR53hSMS2ahO-124" value="tipo" style="shape=partialRectangle;html=1;whiteSpace=wrap;connectable=0;strokeColor=inherit;overflow=hidden;fillColor=none;top=0;left=0;bottom=0;right=0;pointerEvents=1;" vertex="1" parent="bOGWUnNEWR53hSMS2ahO-122">
          <mxGeometry x="164" width="164" height="40" as="geometry">
            <mxRectangle width="164" height="40" as="alternateBounds" />
          </mxGeometry>
        </mxCell>
        <mxCell id="bOGWUnNEWR53hSMS2ahO-125" value="&lt;b&gt;EXCURSION&lt;/b&gt;" style="text;html=1;strokeColor=none;fillColor=none;align=center;verticalAlign=middle;whiteSpace=wrap;rounded=0;" vertex="1" parent="1">
          <mxGeometry x="-2310" y="610" width="245" height="30" as="geometry" />
        </mxCell>
        <mxCell id="bOGWUnNEWR53hSMS2ahO-126" value="3NF" style="text;strokeColor=none;fillColor=none;html=1;fontSize=24;fontStyle=1;verticalAlign=middle;align=center;" vertex="1" parent="1">
          <mxGeometry x="-2490" y="640" width="100" height="40" as="geometry" />
        </mxCell>
        <mxCell id="bOGWUnNEWR53hSMS2ahO-132" value="&lt;font style=&quot;font-size: 18px;&quot;&gt;En este caso, todas las relaciones están ya en 3º forma normal, ya que:&lt;br&gt;-&amp;nbsp; No tiene ningún atributo multivaluado (1º).&lt;br&gt;&lt;br&gt;-&amp;nbsp; Todos los atributos no principales dependen exclusivamente de la clave principal (2º) &lt;br&gt;&lt;br&gt;- No hay ninguna dependencia transitiva entre los atributos no principales (3º)&lt;/font&gt;" style="text;html=1;align=center;verticalAlign=middle;whiteSpace=wrap;rounded=0;" vertex="1" parent="1">
          <mxGeometry x="190" y="-135" width="710.75" height="210" as="geometry" />
        </mxCell>
        <mxCell id="bOGWUnNEWR53hSMS2ahO-134" value="" style="shape=table;startSize=0;container=1;collapsible=0;childLayout=tableLayout;" vertex="1" parent="1">
          <mxGeometry x="-2350" y="470" width="328" height="40" as="geometry" />
        </mxCell>
        <mxCell id="bOGWUnNEWR53hSMS2ahO-135" value="" style="shape=tableRow;horizontal=0;startSize=0;swimlaneHead=0;swimlaneBody=0;strokeColor=inherit;top=0;left=0;bottom=0;right=0;collapsible=0;dropTarget=0;fillColor=none;points=[[0,0.5],[1,0.5]];portConstraint=eastwest;" vertex="1" parent="bOGWUnNEWR53hSMS2ahO-134">
          <mxGeometry width="328" height="40" as="geometry" />
        </mxCell>
        <mxCell id="bOGWUnNEWR53hSMS2ahO-136" value="&lt;u&gt;&lt;i&gt;idExcursion&lt;/i&gt;&lt;/u&gt;" style="shape=partialRectangle;html=1;whiteSpace=wrap;connectable=0;strokeColor=inherit;overflow=hidden;fillColor=none;top=0;left=0;bottom=0;right=0;pointerEvents=1;" vertex="1" parent="bOGWUnNEWR53hSMS2ahO-135">
          <mxGeometry width="164" height="40" as="geometry">
            <mxRectangle width="164" height="40" as="alternateBounds" />
          </mxGeometry>
        </mxCell>
        <mxCell id="bOGWUnNEWR53hSMS2ahO-137" value="&lt;u&gt;&lt;i&gt;idAlojamiento&lt;/i&gt;&lt;/u&gt;" style="shape=partialRectangle;html=1;whiteSpace=wrap;connectable=0;strokeColor=inherit;overflow=hidden;fillColor=none;top=0;left=0;bottom=0;right=0;pointerEvents=1;" vertex="1" parent="bOGWUnNEWR53hSMS2ahO-135">
          <mxGeometry x="164" width="164" height="40" as="geometry">
            <mxRectangle width="164" height="40" as="alternateBounds" />
          </mxGeometry>
        </mxCell>
        <mxCell id="bOGWUnNEWR53hSMS2ahO-138" value="&lt;b&gt;REALIZA&lt;/b&gt;" style="text;html=1;strokeColor=none;fillColor=none;align=center;verticalAlign=middle;whiteSpace=wrap;rounded=0;" vertex="1" parent="1">
          <mxGeometry x="-2300" y="440" width="245" height="30" as="geometry" />
        </mxCell>
        <mxCell id="bOGWUnNEWR53hSMS2ahO-139" value="3NF" style="text;strokeColor=none;fillColor=none;html=1;fontSize=24;fontStyle=1;verticalAlign=middle;align=center;" vertex="1" parent="1">
          <mxGeometry x="-2470" y="470" width="100" height="40" as="geometry" />
        </mxCell>
      </root>
    </mxGraphModel>
  </diagram>
</mxfile>
